# xmcd CD database file
#
# Track frame offsets:
#	150
#	17057
#	36630
#	53522
#
# Disc length: 972 seconds
#
# Revision: 0
# Processed by: cddbd v1.5.1PL0 Copyright (c) Steve Scherf et al.
# Submitted via: CDex 1.51
#
DISCID=2c03ca04
DTITLE=前田愛(AiM) - ムーぽん：あしたへのじゅもん
DYEAR=1999
DGENRE=Vocal
TTITLE0=あしたへのじゅもん
TTITLE1=青空をゆく雲のように
TTITLE2=あしたへのじゅもん(オリジナルカラオケ)
TTITLE3=青空をゆく雲のように(オリジナルカラオケ)
EXTD=YEAR: 1999
EXTT0=
EXTT1=
EXTT2=
EXTT3=
PLAYORDER=
